<svg xmlns="http://www.w3.org/2000/svg" viewBox="0 0 512 512" role="img" aria-label="小动物山海经">
  <defs><linearGradient id="bg" x1="0" y1="0" x2="1" y2="1"><stop stop-color="#fff3df"/><stop offset="1" stop-color="#e9b98e"/></linearGradient></defs>
  <rect width="512" height="512" rx="112" fill="url(#bg)"/>
  <path d="M92 380c36-78 92-112 164-112s128 34 164 112" fill="#8bb27f" opacity=".9"/>
  <path d="M154 264v-96l48 32c28-20 80-20 108 0l48-32v96c0 70-46 120-102 120s-102-50-102-120z" fill="#d77a58"/>
  <path d="M198 276c14-18 102-18 116 0 0 54-25 83-58 83s-58-29-58-83z" fill="#fff0d8"/>
  <circle cx="220" cy="258" r="10" fill="#4c382e"/><circle cx="292" cy="258" r="10" fill="#4c382e"/>
  <path d="M242 296q14 12 28 0" fill="none" stroke="#4c382e" stroke-width="9" stroke-linecap="round"/>
  <path d="M256 86l13 30 33 3-25 22 8 32-29-17-29 17 8-32-25-22 33-3z" fill="#f3c75f"/>
</svg>
